<svg width="267" height="219" viewBox="0 0 267 219" fill="none" xmlns="http://www.w3.org/2000/svg">
<path fill-rule="evenodd" clip-rule="evenodd" d="M159.994 1.45896C154.437 7.31318 148.321 16.5577 146.205 22.2992C144.972 25.6463 143.371 28.9305 141.368 32.2226C137.953 37.8361 137.715 39.4892 139.873 42.6162C142.205 45.9972 142.085 47.3737 139.666 44.9946C138.275 43.6274 136.654 42.6129 136.347 42.9179C136.108 43.1546 136.718 44.0822 137.503 44.6777C140.193 46.7193 140.405 47.2829 138.014 46.035C136.486 45.238 134.787 44.8905 134.787 45.3746C134.787 45.7432 136.154 46.71 138.003 47.6476C139.848 48.5838 141.417 49.658 140.505 49.3609C140.27 49.284 139.469 49.1646 138.726 49.0957C136.885 48.9253 136.965 49.2754 138.99 50.2428C142.824 52.0742 141.666 51.9787 135.866 49.9835C130.352 48.0878 128.164 47.5335 125.621 47.387C122.161 47.188 121.628 46.4733 124.934 46.4666C126.696 46.4633 127.454 46.2352 127.454 45.7068C127.454 45.4548 127.074 45.3931 125.512 45.3931C123.131 45.3931 122.911 45.0079 125.243 44.9204C126.821 44.8613 126.919 44.8295 126.988 44.3461C127.059 43.8462 127.034 43.8382 125.909 43.9848C125.102 44.0902 124.825 44.0676 124.983 43.9092C125.107 43.7852 125.81 43.6207 126.547 43.5445C127.922 43.4019 128.425 42.8622 127.508 42.5121C127.149 42.3742 127.149 42.3576 127.508 42.1574C128.733 41.4744 126.823 41.0593 124.866 41.5831C124.688 41.6309 124.785 41.5692 125.082 41.4465C130.237 39.3161 130.728 37.181 129.736 21.2038C128.747 5.2769 128.204 3.72864 124.644 6.66934C120.523 10.0729 117.713 14.9736 114.284 24.7359C113.25 27.6793 112.046 30.8832 111.609 31.8559C110.135 35.1355 110.343 36.5385 112.591 38.5065C114.539 40.2099 114.053 40.6084 111.371 39.5064C109.032 38.5456 108.726 38.6464 109.874 40.0004L110.411 40.6343L109.943 40.9426C109.451 41.2669 109.898 41.4081 112.842 41.863C113.97 42.0373 113.849 42.3152 112.572 42.4829C110.896 42.7037 111.17 43.3701 113.111 43.7918C113.714 43.9231 113.631 43.9854 111.873 44.7161C109.669 45.6331 109.6 45.905 111.546 45.9912C114.59 46.1258 114.048 46.9115 110.464 47.5607L107.817 48.0407L107.229 47.3432C106.861 46.9069 106.217 46.5044 105.508 46.2664C104.442 45.9097 104.311 45.783 103.327 44.1572C102.751 43.2063 101.459 41.4333 100.456 40.2179C98.227 37.5152 97.3859 36.3051 96.8087 34.9677C96.17 33.4884 94.8318 31.8215 93.6473 31.0311C91.2449 29.4265 90.6991 28.5486 90.4747 25.9301C90.307 23.9661 89.9014 22.7083 88.1224 18.635C86.3707 14.6235 85.6679 14.8463 84.9624 19.6363C84.7399 21.1461 84.4226 22.7633 84.2569 23.2294L83.9563 24.0775L83.5888 23.5212C83.3864 23.2149 82.8907 22.1752 82.4872 21.2104C81.6173 19.1323 81.4075 18.8492 80.7408 18.8492C79.6545 18.8492 79.4681 20.2198 79.4334 28.4823C79.4013 36.2222 79.4113 36.1208 78.3217 39.8273C78.1313 40.4752 77.9088 41.6793 77.8267 42.5035C77.7445 43.3277 77.5574 45.0616 77.4105 46.3566C77.0784 49.284 77.3891 53.5853 78.1467 56.5519C78.4286 57.6552 78.5762 58.5895 78.476 58.6273C78.3752 58.6651 77.9556 58.9237 77.5434 59.2008L76.7945 59.7054L76.7277 59.1319C76.6148 58.1611 76.2086 58.4655 74.0674 61.127C68.662 67.8472 65.1172 74.3207 63.5192 80.3931C62.4309 84.5273 62.658 84.1036 61.1555 84.8019C60.4126 85.1467 58.6001 85.7733 57.1277 86.1943C51.435 87.8208 50.6514 88.645 50.3494 93.3216C50.1209 96.865 49.2758 98.0533 46.9857 98.0533C44.9327 98.0533 44.9708 98.7448 47.0812 99.7978C49.9072 101.207 49.3319 101.995 44.4356 103.419C41.3899 104.305 39.8874 105.126 39.8874 105.904C39.8874 106.411 42.1087 106.236 44.451 105.546C47.6758 104.595 47.6517 104.588 47.6517 106.389V107.875L46.6269 108.162C45.2293 108.552 44.9988 109.397 46.2889 109.402C47.4694 109.407 47.5195 109.477 48.1655 112.056C48.8409 114.752 48.9779 114.497 46.4185 115.314C44.4176 115.952 43.6132 116.561 44.28 116.931C44.6447 117.134 44.626 117.198 44.0161 117.823C43.6546 118.193 43.1322 119.095 42.855 119.826C42.4635 120.861 42.1341 121.324 41.3712 121.914C40.1546 122.855 39.6509 123.676 40.1125 123.966C40.3797 124.134 40.3751 124.164 40.0825 124.166C39.3095 124.173 36.7962 126.097 33.8259 128.954C32.0943 130.62 30.3713 132.207 29.9979 132.48C29.5609 132.801 29.3184 133.163 29.3184 133.498C29.3184 134.256 29.6398 134.147 31.1189 132.881C37.805 127.16 43.4582 124.435 50.7302 123.428C51.745 123.288 51.7644 123.296 52.0637 124.007L52.3677 124.728L54.9017 125.104C60.601 125.95 68.8237 129.671 71.1439 132.455C71.7759 133.213 71.7919 133.271 71.3831 133.336C70.8413 133.42 70.8413 133.431 71.4105 134.413C71.7986 135.082 72.0545 135.257 72.947 135.468C74.1676 135.756 74.6119 136.051 74.6119 136.574C74.6119 137.08 75.4116 137.768 76.4985 138.197C77.4813 138.584 78.5054 139.672 79.9177 141.83C80.3807 142.536 81.7636 144.457 82.9916 146.098C85.1554 148.99 85.8556 150.213 87.4095 153.817C87.8157 154.759 88.7878 156.879 89.5707 158.527C91.7407 163.099 91.8315 163.66 91.6632 171.478C91.5663 175.967 91.7627 177.316 92.7341 178.836C93.942 180.727 94.2239 179.225 93.2398 176.145C92.692 174.431 92.678 174.265 92.855 171.478C92.9559 169.889 93.0421 167.384 93.0454 165.912L93.0528 163.236L92.0533 161.417C91.5035 160.416 90.7506 159.055 90.3798 158.392C90.0083 157.729 89.1278 155.493 88.4217 153.425C86.7581 148.55 86.2872 147.781 81.1784 141.615C80.3981 140.674 79.4508 139.407 79.0726 138.799C78.5502 137.959 78.1994 137.64 77.6029 137.461C77.0677 137.3 76.427 136.782 75.5799 135.824C74.821 134.966 74.1189 134.379 73.7688 134.309C73.3285 134.222 73.0299 133.877 72.4754 132.815C71.6476 131.23 70.0242 129.678 68.1723 128.699C64.3503 126.679 57.0455 123.864 54.9297 123.597C54.088 123.491 53.9483 123.414 54.1514 123.171C54.4888 122.767 54.3853 122.705 52.9168 122.432C50.1644 121.918 46.677 122.526 42.8777 124.181C40.3043 125.301 40.1065 125.37 40.6957 124.933C41.2656 124.511 41.3364 123.955 40.8213 123.955C40.6229 123.955 40.9383 123.703 41.5222 123.394C42.1054 123.086 42.9472 122.642 43.3921 122.408C44.0722 122.051 44.2005 121.874 44.2005 121.289C44.2005 120.497 44.9287 119.418 46.4398 117.97C47.5796 116.879 47.615 116.781 46.9509 116.58C46.4799 116.437 46.4846 116.424 47.1126 116.136C47.9985 115.731 49.8123 115.74 50.4075 116.154C50.9995 116.565 51.0015 116.602 50.3481 114.879C48.4441 109.859 48.8516 101.301 51.2406 96.135C52.1519 94.1644 52.0797 94.2075 54.4755 94.2035C56.0641 94.2008 56.5418 94.1239 56.9366 93.807C57.5092 93.3468 57.3448 92.9158 56.5973 92.9158C56.3113 92.9158 55.7321 92.752 55.3092 92.5525C54.6879 92.258 54.3873 92.2315 53.7386 92.4139C53.297 92.5379 52.7972 92.6778 52.6276 92.7242C51.7751 92.9583 51.9728 89.5169 52.8387 89.0574C54.3332 88.2631 56.493 89.7072 58.1131 92.5823C59.0284 94.2061 59.2983 94.3288 59.2983 93.1194C59.2983 91.7336 58.2307 90.3226 55.9559 88.702C55.5998 88.4487 55.3573 88.2074 55.4168 88.1663C56.2038 87.6146 57.5466 87.1836 57.3114 87.5569C56.9159 88.1862 57.2259 88.2909 58.353 87.9097C58.9135 87.7207 59.4112 87.6046 59.4593 87.6524C59.5074 87.7001 59.3451 87.8029 59.0992 87.8805C57.735 88.3095 58.9462 88.9023 61.2551 88.9348C62.5291 88.9533 62.6801 88.9977 62.5144 89.3087C62.3113 89.6893 62.6493 89.9187 63.4143 89.9187C63.7116 89.9187 63.8278 90.0693 63.8278 90.4538C63.8278 90.9226 63.9214 90.9889 64.5828 90.9889C65.3704 90.9889 65.5662 90.6594 65.0704 90.1674C64.9235 90.0215 64.8026 89.7377 64.8005 89.5362C64.7992 89.32 64.5995 89.1416 64.3129 89.1012C63.7416 89.021 63.6581 88.6443 64.2053 88.6132C64.4471 88.5992 64.389 88.5362 64.0436 88.4375C63.6214 88.3168 63.5132 88.1563 63.5466 87.6988C63.5793 87.2406 63.5098 87.1378 63.2226 87.2227C63.0215 87.2824 62.5879 87.1133 62.2592 86.8468L61.6613 86.3634L62.8524 85.0571C63.5078 84.3384 64.0463 83.5732 64.0503 83.3564C64.0563 82.9857 64.0697 82.9844 64.2761 83.3365C64.8613 84.3331 65.6737 82.0687 65.4847 79.9681C65.2782 77.6785 68.475 71.144 73.1562 64.2846C74.8177 61.8504 74.9085 61.7656 74.7054 62.8397C74.4522 64.1785 75.7209 63.4106 76.7751 61.5865L77.4118 60.4852L77.4138 61.2875C77.4165 62.3763 77.6416 62.3086 79.1862 60.7524C80.4743 59.4548 80.5183 59.4309 80.6499 59.9494C80.7682 60.4169 80.8998 60.4825 81.6774 60.4673C82.572 60.4494 82.7343 60.3632 85.2737 58.5477C86.1763 57.9025 86.3653 57.8376 86.5243 58.1194C86.7682 58.5524 87.0982 58.5391 87.6106 58.0769C87.8384 57.8707 89.2988 57.0757 90.8548 56.3105C93.7208 54.9008 94.5613 54.2079 94.4196 53.3738C94.3321 52.8593 84.8227 57.3376 82.9361 58.7818L81.8785 59.592L81.0488 58.6472C77.9543 55.1223 76.8733 45.6332 79.3452 43.6904C80.5778 42.721 80.9626 40.8087 80.1402 39.7385C79.4294 38.8135 79.424 38.0735 80.1168 36.5186C80.8403 34.8941 80.9653 33.4254 80.662 30.1068C80.3246 26.4148 80.3426 23.0139 80.7047 21.9855L80.9953 21.1613L82.0355 22.9098C83.4251 25.2445 83.5501 25.8923 83.1399 28.6295C82.7691 31.1107 82.7049 33.5315 83.0056 33.7158C83.2448 33.8624 83.6396 32.1716 84.5268 27.1979C85.4461 22.0432 86.2471 17.9707 86.3847 17.7499C86.5931 17.415 86.9058 17.5569 86.9058 17.9852C86.9058 18.2167 87.4022 19.8783 88.0095 21.6779C89.1492 25.0575 89.689 27.4399 89.7024 29.144C89.709 30.0942 89.7364 30.1353 90.5288 30.3707C92.6519 31.0019 93.8778 32.2306 96.5468 36.4026C97.4888 37.8746 99.1743 40.2829 100.293 41.7542C101.412 43.2262 102.618 44.9814 102.972 45.6557C103.487 46.6317 103.75 46.9076 104.266 47.0143C105.554 47.2795 105.935 47.6747 105.572 48.371C104.847 49.7634 103.72 50.3131 99.8464 51.1645C96.824 51.8282 95.6001 52.6477 95.1164 54.3306C94.8345 55.3086 95.1184 55.245 97.3872 53.8207C100.064 52.1412 100.764 51.868 103.091 51.5994C105.616 51.3077 107.208 50.8773 107.682 50.3582C108.109 49.8894 107.961 49.6745 107.209 49.6745C105.937 49.6745 107.239 49.2727 109.552 48.9518C121.873 47.2418 128.974 47.9665 137.341 51.7871L140.449 53.2067L138.297 53.3135C136.94 53.3811 136.015 53.5283 135.792 53.7126C135.141 54.251 135.645 54.448 137.352 54.3213C139.065 54.1947 140.179 54.3094 140.179 54.6111C140.179 54.7092 139.718 54.818 139.155 54.8538C138.296 54.9088 138.13 54.9884 138.13 55.3471C138.13 55.857 140.116 55.8908 141.591 55.4061L142.421 55.1336L142.904 52.5642C143.82 47.69 143.573 46.0827 141.379 42.6493C139.302 39.399 139.397 38.6172 142.531 33.1211C143.655 31.1504 144.962 28.3669 146.222 25.2624C148.445 19.7848 149.109 18.5661 152.859 13.0693C158.57 4.69804 161.073 1.5425 161.815 1.77855C165.763 3.0344 167.894 38.2592 164.527 46.6138C163.97 47.9957 163.076 48.3444 158.296 49.0433C154.537 49.593 154.902 49.278 154.524 52.3029C154.325 53.8943 154.015 55.2569 153.667 56.0804C152.696 58.368 153.012 59.3076 154.751 59.3076C155.369 59.3076 155.425 58.9688 154.902 58.3945C154.695 58.1684 155.059 58.3402 155.71 58.7758C156.362 59.2121 158.835 60.5323 161.208 61.7099C165.621 63.9 167.923 65.2666 168.848 66.2453C169.363 66.791 169.354 66.7896 168.145 66.1398C165.622 64.7839 166.218 65.8209 169.585 68.6509C172.185 70.835 173.054 71.7494 172.723 71.9529C172.349 72.181 172.861 72.9323 174.679 74.8273C177.059 77.3059 177.607 78.0711 177.281 78.4609C177.064 78.7202 177.189 78.9715 177.985 79.8739C178.517 80.478 179.655 82.1416 180.514 83.5725C181.374 85.0028 182.408 86.5795 182.814 87.0775L183.551 87.9819L182.732 87.9335C181.632 87.8685 181.541 88.4646 182.475 89.6098C185.547 93.374 190.827 107.324 191.829 114.322C192.411 118.386 192.271 118.437 190.664 114.743C190.079 113.396 189.355 112.004 189.057 111.649L188.515 111.004L188.503 111.829C188.475 113.882 192.564 123.151 197.066 131.234L197.602 132.197L196.334 130.912C195.637 130.206 194.795 129.291 194.462 128.879L193.859 128.129L193.983 128.879C194.171 130.018 195.012 131.567 196.597 133.695C197.884 135.424 197.985 135.629 197.576 135.69C196.972 135.78 196.972 135.778 198.065 137.53C199.776 140.274 200.138 141.157 200.138 142.572V143.863H194.746H189.354V145.148V146.432L193.291 146.457C195.456 146.471 197.504 146.543 197.843 146.618L198.46 146.754L197.435 148.145C196.155 149.884 193.601 152.382 191.197 154.245C190.183 155.03 189.354 155.714 189.354 155.766C189.354 156.04 190.499 157.602 190.777 157.708C191.579 158.014 197.044 153.184 199.142 150.316L200.138 148.954V154.222V159.49H201.648H203.158V152.961V146.432H205.53H207.903V145.148V143.863H205.315H202.727V142.044V140.224H201.904C201.175 140.224 201.04 140.138 200.718 139.468C200.27 138.536 200.262 138.297 200.678 138.297C201.174 138.297 201.065 137.686 200.377 136.604C199.945 135.925 199.754 135.352 199.759 134.749C199.77 133.467 198.202 129.609 196.603 126.984C194.146 122.949 193.668 121.338 193.668 117.089C193.668 113.806 193.302 111.742 192.056 108.007C190.417 103.093 185.834 92.5571 184.166 89.8657L183.522 88.8273L184.282 88.9686C184.699 89.0468 185.041 89.0455 185.041 88.9659C185.041 88.5601 183.817 86.3455 182.94 85.1626C181.218 82.8412 179.864 80.6756 179.864 80.2413C179.864 80.0112 179.542 79.4211 179.148 78.9304C178.753 78.4397 178.21 77.6527 177.94 77.1819C177.281 76.0301 173.76 71.0472 172.569 69.5825C172.043 68.9353 171.334 67.9168 170.994 67.3201C169.988 65.551 167.595 63.7906 162.141 60.8088C158.709 58.9323 158.644 58.8832 159.552 58.8812C161.122 58.8779 160.67 58.252 158.525 57.4576C155.244 56.2429 154.72 55.7449 157.221 56.2184C159.072 56.5691 160.373 56.6122 160.549 56.3298C160.665 56.1434 158.28 55.1356 156.901 54.7881C156.542 54.6979 156.975 54.69 157.865 54.7715C164.086 55.3398 165.544 54.2 159.592 53.4209C155.431 52.8765 155.252 52.655 158.728 52.3507C160.827 52.1677 161.532 51.9568 161.532 51.5146C161.532 51.254 161.151 51.2215 159.213 51.3163C157.358 51.4071 156.81 51.366 156.47 51.1101C155.915 50.6904 156.665 50.4649 160.561 49.8841C164.831 49.2469 164.545 49.3974 165.37 47.3591C167.853 41.2271 168.019 30.4728 165.951 9.5371C165.493 4.89961 164.74 2.47013 163.233 0.766714C162.2 -0.401611 161.648 -0.283585 159.994 1.45896ZM127.332 9.5371C128.058 15.1453 128.737 27.174 128.745 34.5659L128.748 37.118L127.823 37.9913C127.315 38.4714 125.883 39.4056 124.643 40.0674L122.386 41.2702L122.352 42.6931C122.316 44.2301 121.777 46.0131 121.145 46.6861C120.789 47.066 120.453 47.1058 117.632 47.1058H114.513V46.4792C114.513 46.1344 114.366 45.7068 114.188 45.5291C113.897 45.2413 113.907 45.175 114.274 44.9197C114.572 44.7128 114.717 44.2818 114.801 43.3549C114.865 42.6507 114.982 41.7144 115.062 41.2728C115.276 40.0946 115.071 39.5827 113.788 38.0788C111.81 35.7607 111.74 35.2747 112.919 32.0144C113.345 30.8368 114.256 28.284 114.944 26.3412C118.088 17.4681 121.121 11.8227 124.836 7.93248C126.765 5.91278 126.871 5.98041 127.332 9.5371ZM82.912 38.547C81.4804 40.0302 82.0182 42.8324 83.7986 43.1639C85.6157 43.5021 86.69 42.4982 86.69 40.4606C86.69 38.0729 84.46 36.943 82.912 38.547ZM85.5316 39.0907C86.6212 40.741 85.9792 42.6102 84.3224 42.6102C83.1786 42.6102 82.7056 41.9458 82.8633 40.5594C83.0677 38.7591 84.7145 37.8527 85.5316 39.0907ZM83.4692 39.8008C82.9982 40.6747 83.3309 41.54 84.1373 41.54C84.625 41.54 85.0105 40.8272 84.9243 40.0846C84.8368 39.3347 83.8273 39.1371 83.4692 39.8008ZM79.1842 42.1262C79.4715 42.4703 79.2477 43.0386 78.8248 43.0386C78.458 43.0386 78.3999 42.4491 78.6537 41.2993L78.8127 40.5766L78.8882 41.2191C78.9297 41.5725 79.0633 41.9803 79.1842 42.1262ZM66.2409 80.3149C65.8788 81.4176 65.5187 82.7291 65.4412 83.2291L65.2996 84.1395H66.0839C67.229 84.1395 68.4242 80.9634 67.4942 80.3931C67.376 80.3202 67.2771 79.9535 67.2751 79.5776C67.2677 78.0392 66.903 78.2998 66.2409 80.3149ZM86.2578 78.8488C83.3369 79.6724 81.3474 82.0355 80.7435 85.3993C79.3572 93.1107 81.4289 96.0196 88.3074 96.0196C95.7865 96.0196 98.5764 92.7481 96.8414 86.0133C95.4371 80.5635 90.949 77.5254 86.2578 78.8488ZM91.2149 80.0039C94.3221 80.9998 95.9562 84.2316 95.9576 89.3837C95.9582 92.4364 95.1732 93.4708 92.1268 94.4303C86.1682 96.3061 81.618 94.2121 81.3407 89.4659C80.9753 83.1946 86.0373 78.3442 91.2149 80.0039ZM66.7239 82.5182C66.6444 82.8319 66.5382 83.0474 66.4874 82.997C66.4367 82.9466 66.46 82.6489 66.5395 82.3346C66.6184 82.021 66.7253 81.8055 66.776 81.8565C66.8268 81.9069 66.8034 82.2046 66.7239 82.5182ZM67.9345 82.8425C67.4414 83.5294 66.8475 84.835 66.8475 85.2309C66.8475 85.5107 68.5097 85.3694 68.7869 85.0658C68.9974 84.835 68.7903 82.2126 68.5618 82.2126C68.4649 82.2126 68.183 82.4957 67.9345 82.8425ZM84.0505 84.6885C82.3315 85.6141 82.2567 89.2756 83.9329 90.4412C84.8682 91.091 86.9058 90.6554 86.9058 89.8054C86.9058 89.5819 86.7341 89.5355 86.2584 89.6297C85.8462 89.7119 85.6117 89.6708 85.6117 89.5176C85.6117 89.385 85.8543 89.2769 86.1509 89.2769C87.0755 89.2769 87.5525 88.58 87.5525 87.2327C87.5525 84.7879 85.9832 83.6475 84.0505 84.6885ZM69.2098 85.3423C69.0041 85.88 69.2319 86.494 69.6374 86.494C69.7717 86.494 70.5139 85.1274 70.5139 84.8814C70.5139 84.4657 69.3942 84.8615 69.2098 85.3423ZM70.2981 85.9589C70.2981 86.1373 70.4899 86.2798 70.7297 86.2798C70.9695 86.2798 71.1613 86.1373 71.1613 85.9589C71.1613 85.7805 70.9695 85.6373 70.7297 85.6373C70.4899 85.6373 70.2981 85.7805 70.2981 85.9589ZM85.758 104.862C84.1152 106.663 87.7289 107.673 95.8567 107.684C99.9166 107.69 101.68 107.904 108.151 109.182C114.554 110.445 116.292 110.681 119.204 110.682C121.906 110.683 122.063 110.629 121.639 109.842C121.189 109.007 114.124 107.367 106.857 106.411C105.493 106.231 86.7949 104.475 86.2464 104.475C86.1716 104.475 85.9518 104.649 85.758 104.862ZM94.886 106.094C101.615 106.677 113.781 108.446 116.777 109.276C118.757 109.824 117.017 109.622 111.48 108.659C102.088 107.026 100.081 106.781 92.0981 106.293C89.0149 106.104 86.9552 105.889 86.8136 105.742C86.5531 105.47 88.8085 105.568 94.886 106.094ZM76.1217 106.723C75.9133 106.972 75.9106 107.113 76.1104 107.351C76.2961 107.574 76.3041 107.776 76.1384 108.083C75.8913 108.542 75.9153 110.897 76.1672 110.897C76.2513 110.898 76.5039 110.703 76.727 110.464L77.1339 110.031L81.1263 110.781C88.5399 112.175 92.9044 113.261 107.396 117.321C122.185 121.465 121.916 121.411 121.254 120.102C120.71 119.024 118.394 117.936 114.621 116.984C112.96 116.566 110.679 115.945 109.552 115.606C96.8574 111.784 87.2739 109.357 80.3273 108.206C78.3671 107.881 78.1093 107.783 77.4946 107.125C76.7417 106.32 76.5146 106.253 76.1217 106.723ZM89.7578 111.21C99.7308 113.701 117.684 118.738 117.442 118.978C117.295 119.126 113.773 118.194 110.2 117.063C103.097 114.815 93.1643 112.219 83.8861 110.185C76.9555 108.666 77.2561 108.75 79.1889 108.878C80.2832 108.949 83.9115 109.75 89.7578 111.21ZM51.5339 112.808C51.5339 113.035 51.8011 113.43 52.1272 113.686L52.7204 114.151L52.7912 113.684C52.8694 113.173 52.2855 112.396 51.8239 112.396C51.6642 112.396 51.5339 112.582 51.5339 112.808ZM83.4545 118.394C83.4545 119.13 83.5407 119.291 84.0478 119.503C84.3745 119.64 87.7957 121.239 91.6505 123.057C100.837 127.389 103.471 128.521 105.897 129.18C108.233 129.815 108.286 129.8 107.549 128.695C106.424 127.008 104.47 125.773 99.9546 123.893C98.412 123.251 95.6582 122.033 93.8337 121.186C89.6589 119.25 87.654 118.456 85.6311 117.941C83.4525 117.386 83.4545 117.385 83.4545 118.394ZM86.2638 119.226C91.0278 121.062 103.729 126.749 103.729 127.045C103.729 127.235 101.128 126.143 90.8955 121.656C87.2532 120.058 84.2829 118.638 84.5381 118.614C84.6003 118.608 85.3766 118.884 86.2638 119.226ZM27.045 135.485C26.0248 136.103 21.7545 140.732 20.8533 142.198C19.8692 143.797 19.8197 144.18 20.6214 143.98C21.3383 143.802 21.214 143.987 19.2659 146.004C17.8422 147.478 17.1274 148.637 16.8889 149.86L16.7433 150.607L17.2477 150.178L17.7521 149.75L17.2991 150.499C14.2393 155.562 13.1751 157.695 11.9766 161.168C10.8462 164.444 10.5148 165.116 9.06575 167.085C7.92134 168.64 7.74363 169.04 8.28945 168.832C8.71969 168.668 8.76178 168.528 7.51515 171.405C6.91121 172.799 5.54433 176.107 4.47742 178.756C3.4105 181.405 2.48255 183.704 2.41574 183.864C2.3202 184.092 2.44714 184.122 2.99229 184.003C3.647 183.861 3.67573 183.879 3.45393 184.29C2.97625 185.175 1.71894 189.927 1.08694 193.233C-0.218479 200.063 -0.399527 215.37 0.825053 215.358C1.58933 215.35 1.8098 214.992 1.70491 213.928C1.64946 213.362 1.61004 211.262 1.61806 209.26C1.63008 206.301 1.57396 205.578 1.31676 205.387C0.893197 205.073 1.11901 203.083 1.84454 200.731C2.71303 197.916 2.70502 198.022 2.06032 198.022C1.70491 198.022 1.4958 197.904 1.4958 197.704C1.4958 197.011 2.62952 192.111 3.04507 191.009C3.3791 190.123 3.4232 189.797 3.22678 189.677C2.81725 189.425 4.51349 184.686 6.11353 181.61C7.8091 178.351 7.45302 178.227 4.98716 181.218L4.281 182.074L4.80411 181.004C5.09138 180.415 5.68196 179.08 6.11554 178.038C6.54978 176.995 7.19114 175.578 7.54121 174.889C7.89195 174.201 8.16786 173.416 8.1545 173.146C8.12778 172.607 8.74842 171.056 10.1039 168.278C10.589 167.283 10.9858 166.272 10.9865 166.03C10.9865 165.789 11.4715 164.869 12.0641 163.985C13.2272 162.252 13.3047 162.059 12.8344 162.059C12.1837 162.059 15.1679 155.749 16.2315 154.875C16.9003 154.325 19.3434 152.883 21.3871 151.831C22.8248 151.091 23.2002 151.259 25.6454 153.735C28.8728 157.004 29.2984 156.519 28.6691 150.285C27.864 142.315 27.359 141.631 23.3953 143.14C23.1868 143.22 23.0639 143.146 23.0639 142.941C23.0639 142.761 22.8181 142.533 22.5174 142.434C21.9836 142.257 22.0157 142.208 23.9738 140.161C25.0748 139.01 26.2987 137.69 26.6929 137.229C27.0877 136.767 27.8567 136.097 28.4018 135.738L29.3926 135.087L28.5468 135.088C28.0818 135.088 27.4057 135.267 27.045 135.485ZM247.815 139.348C247.654 139.647 247.7 140.096 247.983 141.007L248.372 142.258L249.3 142.215C250.52 142.158 250.533 142.133 250.084 140.703C249.515 138.896 248.413 138.238 247.815 139.348ZM244.574 139.354C244.295 139.535 244.299 139.718 244.605 140.856L244.956 142.151H237.968H230.981V143.435V144.72H237.883H244.785V145.378C244.785 145.74 244.541 146.756 244.243 147.637C242.663 152.31 241.21 153.671 235.677 155.666C232.654 156.755 232.733 156.676 233.354 157.993C234.014 159.391 234.423 159.486 236.542 158.741C242.505 156.645 245.861 152.886 247.268 146.727C247.827 144.283 247.963 142.239 247.575 142.111C247.449 142.069 247.129 141.411 246.866 140.648C246.364 139.197 245.539 138.732 244.574 139.354ZM185.527 139.544C185.051 139.844 186.252 143.008 186.84 143.004C188.382 142.995 188.508 142.7 187.825 140.694C187.362 139.332 186.527 138.914 185.527 139.544ZM226.722 139.51C226.115 139.753 226.915 142.837 227.62 142.973C229.009 143.241 229.321 142.526 228.708 140.477C228.371 139.348 227.809 139.075 226.722 139.51ZM182.615 139.73C182.153 139.85 182.151 139.939 182.58 141.585C182.994 143.172 183.191 143.435 183.962 143.435C184.896 143.435 185.138 142.981 184.844 141.777C184.306 139.575 184.065 139.353 182.615 139.73ZM223.486 139.733C222.9 139.845 222.894 139.746 223.608 141.723L224.187 143.328H225.05H225.913L225.895 142.438C225.852 140.181 225.167 139.412 223.486 139.733ZM156.348 141.351C154.746 144.36 153.009 146.389 150.686 147.966L149.438 148.813L150.126 149.676C151.167 150.979 151.153 150.985 154.278 148.06L157.161 145.362H160.969H164.775L164.636 145.951C164.353 147.142 162.506 150.605 162.116 150.678C161.903 150.717 160.707 150.102 159.459 149.312L157.189 147.875L156.287 148.523C154.937 149.491 154.998 149.61 157.743 151.37C159.108 152.245 160.228 153.01 160.231 153.07C160.261 153.578 155.675 156.032 153.079 156.898C151.034 157.579 150.904 157.782 151.708 159.046C152.363 160.076 152.209 160.056 154.284 159.384C161.625 157.005 166.931 151.056 167.887 144.131L168.043 143.007H163.493C160.488 143.007 158.944 142.932 158.944 142.784C158.944 142.662 159.137 142.184 159.375 141.723C159.927 140.648 159.944 140.703 158.998 140.468C156.93 139.954 157.127 139.889 156.348 141.351ZM263.906 143.576C263.829 145.184 263.765 147.435 263.765 148.577C263.765 154.195 262.844 155.322 257.325 156.459C255.621 156.809 254.122 157.202 253.991 157.331C253.789 157.532 254.371 159.918 254.623 159.918C256.029 159.918 261.267 158.445 262.584 157.679C265.918 155.739 266.526 153.667 266.557 144.131L266.568 140.653H265.308H264.047L263.906 143.576ZM252.765 147.074V153.282H254.059H255.353V147.074V140.866H254.059H252.765V147.074ZM170.85 141.803C169.957 143.306 169.885 143.219 173.063 144.452C176.354 145.729 176.503 145.754 176.934 145.094C177.944 143.543 177.723 143.316 173.781 141.856C171.24 140.915 171.377 140.917 170.85 141.803ZM211.756 142.06C211.245 143.208 211.331 143.585 212.154 143.778C212.485 143.855 213.649 144.292 214.74 144.748C215.831 145.203 216.877 145.576 217.063 145.576C217.359 145.576 218.688 143.814 218.688 143.422C218.688 143.274 212.815 141.08 212.417 141.08C212.294 141.08 211.996 141.521 211.756 142.06ZM130.689 142.708V144.077H136.512C139.716 144.077 142.336 144.128 142.336 144.191C142.336 144.473 141.106 146.69 140.078 148.263C137.973 151.481 134.897 154.267 131.26 156.248C129.774 157.058 129.612 157.204 129.854 157.524C130.605 158.514 131.245 159.062 131.646 159.061C132.589 159.06 136.951 156.019 138.985 153.945C140.371 152.532 140.04 152.388 143.63 155.958C147.076 159.384 147.065 159.378 148.213 158.298C149.413 157.169 149.342 157.037 145.949 154.082C144.258 152.61 142.667 151.178 142.412 150.899L141.948 150.392L143.102 148.505C144.063 146.934 145.553 143.597 146.086 141.826C146.214 141.399 146.129 141.394 138.452 141.366L130.689 141.337V142.708ZM26.4985 143.999C27.0737 144.725 27.3122 145.64 27.5801 148.145C27.6997 149.263 27.9035 151.175 28.0337 152.394C28.341 155.275 28.3985 155.276 25.5892 152.36C22.613 149.269 22.8769 149.292 19.2045 151.818C18.1876 152.518 17.3245 152.996 17.2857 152.882C17.1782 152.562 18.2671 150.524 19.2252 149.252C20.1645 148.003 20.1511 147.716 19.169 148.084L18.525 148.325L19.1697 147.517C21.3857 144.74 25.5151 142.758 26.4985 143.999ZM183.963 146.165C181.361 152.449 178.393 154.899 172.089 155.968C169.621 156.387 169.654 156.358 169.981 157.762C170.306 159.162 170.406 159.199 172.632 158.761C179.846 157.339 182.819 155.018 186.21 148.161C187.523 145.504 187.529 145.326 186.314 144.843C184.85 144.262 184.721 144.334 183.963 146.165ZM224.828 146.588C221.962 152.675 219.322 154.865 213.652 155.858C210.448 156.419 210.546 156.318 211.182 158.39C211.44 159.227 211.93 159.229 215.171 158.412C221.095 156.919 224.077 154.462 226.886 148.759C228.211 146.072 228.267 145.372 227.199 144.866C225.978 144.288 225.875 144.363 224.828 146.588ZM169.013 146.76C168.27 148.306 168.589 148.63 172.145 149.942C174.716 150.889 174.74 150.89 175.188 149.957C175.938 148.395 175.868 148.315 172.645 147.1C169.19 145.797 169.463 145.822 169.013 146.76ZM209.871 147.061C209.619 147.641 209.413 148.204 209.413 148.31C209.413 148.571 214.974 150.754 215.419 150.669C215.87 150.583 216.826 148.873 216.661 148.448C216.468 147.948 211.724 146.004 210.696 146.004C210.462 146.004 210.163 146.386 209.871 147.061ZM204.102 149.215C204.145 151.186 204.291 152.174 204.832 154.173C205.482 156.568 205.851 158.827 206.025 161.47L206.106 162.701H167.211H128.316V163.558V164.414H167.215H206.113L206.258 166.715C206.338 167.98 206.545 170.076 206.72 171.371C206.894 172.666 207.042 174.641 207.048 175.759C207.055 177.032 207.182 178.113 207.386 178.649C207.991 180.231 208.091 180.77 208.853 186.569C210.107 196.115 210.7 203.4 210.705 209.314C210.707 211.594 210.859 211.916 211.484 210.969C211.796 210.497 211.822 209.967 211.696 206.741C211.376 198.581 211.104 193.586 210.692 188.308C210.454 185.26 210.291 182.737 210.329 182.698C210.368 182.661 210.978 182.921 211.685 183.279C216.366 185.642 222 182.415 222.665 176.99L222.816 175.759H219.565H216.315V176.607V177.456L218.253 177.517L220.192 177.579L219.477 178.97C218.647 180.585 217.964 181.118 215.865 181.789L214.388 182.261L213.293 181.752C208.755 179.642 207.624 174.481 210.986 171.222C213.614 168.674 216.713 168.639 219.487 171.125L220.333 171.884L220.924 171.34C221.739 170.59 221.59 170.044 220.305 169.074C216.905 166.508 211.647 167.036 208.901 170.219L208.185 171.051L207.945 169.284C207.813 168.313 207.64 166.819 207.561 165.965L207.416 164.414H237.208H267V163.558V162.701H237.261H207.522L207.378 161.256C207.028 157.735 205.79 152.036 204.578 148.359L204.049 146.754L204.102 149.215ZM45.3315 154.345C42.1114 155.495 37.2919 159.976 36.9365 162.15C36.7741 163.143 37.1817 163.232 40.3223 162.897C44.3568 162.467 45.228 162.993 47.8415 167.439C49.3453 169.999 50.3741 171.122 51.115 171.015C51.8379 170.909 51.8205 170.572 51.0676 170.086C50.6227 169.799 49.7435 168.532 48.3946 166.234C45.4818 161.269 45.2019 161.108 40.6209 161.736C37.4569 162.171 37.479 162.243 40.015 159.746C47.5275 152.35 50.5331 153.792 50.8625 164.949C50.9741 168.743 51.0449 169.444 51.3181 169.444C51.729 169.444 51.8907 162.578 51.5353 160.239C50.7549 155.112 48.6866 153.146 45.3315 154.345ZM131.752 167.999C128.009 169.881 128.758 173.344 133.448 175.833C136.488 177.446 136.941 177.987 136.517 179.49C135.769 182.14 132.472 182.563 131.297 180.16C130.807 179.16 130.527 179.032 129.449 179.319C128.781 179.496 128.783 180.781 129.452 181.767C131.325 184.526 136.244 184.701 137.742 182.062C139.708 178.599 139.023 176.359 135.43 174.501C131.967 172.711 131.271 171.997 131.867 170.851C132.529 169.58 134.49 169.24 136.072 170.123L137.097 170.695L137.919 170.19L138.742 169.686L137.722 168.769C136.028 167.247 133.816 166.962 131.752 167.999ZM188.772 167.797C183.072 169.814 181.141 177.05 185.163 181.317C188.617 184.983 194.406 184.845 197.935 181.014C203.4 175.079 196.464 165.073 188.772 167.797ZM139.532 168.695V169.765H141.365H143.198V176.722V183.68H144.385H145.571V176.722V169.765H147.512H149.454V168.695V167.625H144.492H139.532V168.695ZM150.378 173.458C150.508 179.755 150.607 180.394 151.674 181.801C153.736 184.521 158.893 184.664 161.053 182.063C162.013 180.907 162.178 179.614 162.178 173.262V167.625H161.241H160.304L160.164 170.032C160.087 171.357 160.021 173.789 160.018 175.438C160.007 180.617 158.615 182.598 155.558 181.787C153.035 181.117 152.858 180.589 152.736 173.351L152.639 167.625H151.448H150.257L150.378 173.458ZM164.767 175.684V183.806L166.87 183.735C173.452 183.512 176.396 181.559 177.085 176.958C177.949 171.192 174.706 167.937 167.84 167.678L164.767 167.562V175.684ZM179.002 175.652V183.68H180.188H181.374V175.652V167.625H180.188H179.002V175.652ZM224.295 175.652V183.68H225.374H226.452V179.933V176.187H230.227H234V179.933V183.68H235.079H236.158V175.652V167.625H235.079H234V170.835V174.047H230.227H226.452V170.835V167.625H225.374H224.295V175.652ZM238.746 175.652V183.68H239.824H240.902V175.652V167.625H239.824H238.746V175.652ZM243.49 175.652V183.68H245.441C249.072 183.68 252.004 182.791 252.687 181.483C253.679 179.581 252.402 175.789 250.575 175.213C250.155 175.081 250.161 175.049 250.746 174.444C251.281 173.89 251.366 173.618 251.436 172.233C251.603 168.96 249.7 167.632 244.839 167.626L243.49 167.625V175.652ZM255.138 175.652V183.68H258.804H262.47V182.609V181.539H259.882H257.294V174.582V167.625H256.216H255.138V175.652ZM263.334 175.652V183.68H264.412H265.49V175.652V167.625H264.412H263.334V175.652ZM170.934 170.161C177.706 172.037 176.051 181.082 168.861 181.488L166.924 181.598V175.622V169.647L168.488 169.782C169.348 169.856 170.449 170.027 170.934 170.161ZM193.501 169.775C197.589 170.902 198.943 176.921 195.804 180.014C191.709 184.05 184.793 180.822 185.314 175.119C185.677 171.144 189.475 168.665 193.501 169.775ZM247.481 169.787C250.571 170.623 250.072 174.032 246.78 174.575L245.863 174.726V172.282C245.863 169.296 245.833 169.342 247.481 169.787ZM70.0249 174.413C67.3432 175.903 63.7183 179.335 62.7943 181.258C62.2184 182.457 62.634 182.665 65.9663 182.846C69.9661 183.062 69.8712 183.025 72.2456 185.28C76.5633 189.381 77.7318 188.182 76.4164 181.004C75.2399 174.588 73.3031 172.591 70.0249 174.413ZM73.1582 175.706C74.5411 177.139 76.1097 182.903 75.8685 185.665L75.7984 186.473L74.8283 185.987C74.2097 185.676 73.4381 184.975 72.6992 184.055C71.82 182.96 71.351 182.562 70.7571 182.408C70.0282 182.219 65.6183 181.756 64.5286 181.754C62.8878 181.751 67.0787 177.294 70.1712 175.752C71.7672 174.956 72.4253 174.946 73.1582 175.706ZM249.434 176.927C252.433 178.171 251.007 181.51 247.319 181.88L245.863 182.026V179.184V176.342L247.293 176.487C248.08 176.568 249.043 176.765 249.434 176.927ZM94.4758 180.072C94.1644 180.959 94.1744 182.031 94.4978 182.352C94.8038 182.656 95.8172 180.252 95.6095 179.715C95.3903 179.148 94.727 179.357 94.4758 180.072ZM95.0049 183.84C94.9287 184.517 94.9661 188.009 95.0891 191.6C95.2113 195.191 95.3129 198.731 95.3149 199.467C95.3162 200.203 95.4044 200.805 95.5106 200.805C96.0444 200.805 96.2682 197.724 96.2782 190.262L96.2882 182.61H95.7157C95.1792 182.609 95.1351 182.686 95.0049 183.84ZM94.6147 202.805C93.6066 204.776 93.4503 205.51 93.8651 206.335C94.1223 206.846 94.1324 207.03 93.9172 207.26C93.1349 208.097 92.9358 210.319 93.5384 211.495C94.1517 212.694 94.4544 212.58 94.4577 211.151C94.4597 210.301 94.6715 209.322 95.1225 208.083C96.1239 205.33 96.1226 205.351 95.3356 205.465C94.4377 205.597 94.4597 205.165 95.4251 203.742C96.3778 202.338 96.3925 201.233 95.4585 201.233C95.4371 201.233 95.0576 201.941 94.6147 202.805ZM94.4838 212.525C94.0629 213.306 93.9453 214.933 94.3101 214.933C94.771 214.933 95.3175 214.104 95.3175 213.404C95.3175 212.253 94.8793 211.79 94.4838 212.525ZM94.141 217.052C93.7262 217.965 93.8204 219 94.3181 219C94.6982 219 95.375 217.484 95.2821 216.838C95.1619 215.994 94.5713 216.104 94.141 217.052Z" fill="white"/>
</svg>
