<svg width="25" height="24" viewBox="0 0 25 24" fill="none" xmlns="http://www.w3.org/2000/svg">
<path d="M18.3543 5.7995C18.3543 6.1022 18.1079 6.349 17.8021 6.349C17.4964 6.349 17.25 6.1022 17.25 5.7995C17.25 5.4968 17.4964 5.25 17.8021 5.25C18.1079 5.25 18.3543 5.4968 18.3543 5.7995Z" fill="white" stroke="white" stroke-width="0.5"/>
<path d="M6.25 12C6.25 8.82535 8.83266 6.25 12.0198 6.25C15.2069 6.25 17.7896 8.82535 17.7896 12C17.7896 15.1747 15.2069 17.75 12.0198 17.75C8.83266 17.75 6.25 15.1747 6.25 12ZM8.00743 12C8.00743 14.2058 9.80869 16 12.0198 16C14.2309 16 16.0322 14.2058 16.0322 12C16.0322 9.79259 14.2309 8 12.0198 8C9.80875 8 8.00743 9.79259 8.00743 12Z" fill="white" stroke="white" stroke-width="0.5"/>
<path d="M7.52475 0.25H16.5545C20.5723 0.25 23.8292 3.49735 23.8292 7.5V16.5C23.8292 20.5027 20.5723 23.75 16.5545 23.75H7.52475C3.50688 23.75 0.25 20.5027 0.25 16.5V7.5C0.25 3.49735 3.50688 0.25 7.52475 0.25ZM16.5545 22C19.5963 22 22.0718 19.5338 22.0718 16.5V7.5C22.0718 4.46615 19.5963 2 16.5545 2H7.52475C4.4829 2 2.00743 4.46615 2.00743 7.5V16.5C2.00743 19.5338 4.4829 22 7.52475 22H16.5545Z" fill="white" stroke="white" stroke-width="0.5"/>
</svg>
