<svg width="16" height="16" viewBox="0 0 16 16" fill="none" xmlns="http://www.w3.org/2000/svg">
<path d="M4.75247 0.25H10.4554C12.9299 0.25 14.9579 2.36496 14.9579 5V11C14.9579 13.635 12.9299 15.75 10.4554 15.75H4.75247C2.27804 15.75 0.25 13.635 0.25 11V5C0.25 2.36496 2.27804 0.25 4.75247 0.25ZM10.4554 14.75C12.4398 14.75 14.0322 13.056 14.0322 11V5C14.0322 2.94404 12.4398 1.25 10.4554 1.25H4.75247C2.76814 1.25 1.17574 2.94404 1.17574 5V11C1.17574 13.056 2.76814 14.75 4.75247 14.75H10.4554Z" fill="#577D6B" stroke="#577D6B" stroke-width="0.5"/>
<path d="M4.052 8C4.052 5.91696 5.65422 4.25 7.60398 4.25C9.55375 4.25 11.156 5.91696 11.156 8C11.156 10.083 9.55375 11.75 7.60398 11.75C5.65422 11.75 4.052 10.083 4.052 8ZM4.97774 8C4.97774 9.50396 6.14432 10.75 7.60398 10.75C9.06364 10.75 10.2302 9.50396 10.2302 8C10.2302 6.49497 9.06358 5.25 7.60398 5.25C6.14438 5.25 4.97774 6.49497 4.97774 8Z" fill="#577D6B" stroke="#577D6B" stroke-width="0.5"/>
<path d="M11.9477 3.69999C11.9477 3.8684 11.821 3.98299 11.6911 3.98299C11.5612 3.98299 11.4345 3.8684 11.4345 3.69999C11.4345 3.53158 11.5612 3.41699 11.6911 3.41699C11.821 3.41699 11.9477 3.53158 11.9477 3.69999Z" fill="#577D6B" stroke="#577D6B" stroke-width="0.5"/>
</svg>
