<svg width="25" height="20" viewBox="0 0 25 20" fill="none" xmlns="http://www.w3.org/2000/svg">
<path d="M24.0792 2.3085C23.1838 2.7 22.2296 2.9595 21.2348 3.0855C22.2582 2.4765 23.0393 1.5195 23.4065 0.366C22.4524 0.933 21.3989 1.3335 20.2762 1.557C19.3702 0.5955 18.079 0 16.6703 0C13.9373 0 11.7371 2.211 11.7371 4.9215C11.7371 5.3115 11.7702 5.6865 11.8515 6.0435C7.74748 5.844 4.11604 3.8835 1.67651 0.897C1.25061 1.6335 1.00079 2.4765 1.00079 3.384C1.00079 5.088 1.88119 6.5985 3.1935 7.473C2.4004 7.458 1.62234 7.2285 0.963168 6.867C0.963168 6.882 0.963168 6.9015 0.963168 6.921C0.963168 9.312 2.6743 11.298 4.91818 11.7555C4.51636 11.865 4.07842 11.9175 3.62392 11.9175C3.30788 11.9175 2.98883 11.8995 2.68935 11.8335C3.32895 13.782 5.14392 15.2145 7.30202 15.261C5.6225 16.5705 3.48998 17.3595 1.18139 17.3595C0.776554 17.3595 0.388277 17.3415 0 17.292C2.18669 18.6975 4.77822 19.5 7.57291 19.5C16.6568 19.5 21.6231 12 21.6231 5.499C21.6231 5.2815 21.6156 5.0715 21.6051 4.863C22.5848 4.17 23.408 3.3045 24.0792 2.3085Z" fill="white"/>
</svg>
