<svg width="378" height="94" viewBox="0 0 378 94" fill="none" xmlns="http://www.w3.org/2000/svg">
<path fill-rule="evenodd" clip-rule="evenodd" d="M238.254 0.732037C237.25 0.884037 236.43 1.10004 236.43 1.21304C236.43 1.32504 236.864 2.64904 237.395 4.15404L238.361 6.89104H223.796H209.232V9.87604V12.861H223.579H237.926L237.477 15.67C235.985 24.998 230.709 30.763 220.343 34.39C216.421 35.763 213.212 37.014 213.212 37.172C213.212 37.966 215.965 42.711 216.426 42.711C220.789 42.711 232.257 36.403 236.149 31.862C241.29 25.864 247.094 6.89104 243.788 6.89104C243.457 6.89104 242.803 5.39804 242.336 3.57404C241.868 1.75004 241.169 0.302037 240.782 0.356037C240.395 0.411037 239.257 0.580037 238.254 0.732037ZM243.992 0.749037C242.326 1.90004 245.002 8.25204 246.96 7.79204C249.656 7.15804 249.92 6.56604 248.891 3.46604C247.93 0.572037 245.888 -0.560963 243.992 0.749037ZM117.524 1.37804C116.886 1.54504 116.363 1.90404 116.363 2.17804C116.363 2.65304 118.409 9.03204 118.673 9.38104C119.129 9.98204 123.022 7.91204 122.753 7.21204C122.574 6.74604 122.061 5.14004 121.612 3.64304C120.803 0.943037 120.285 0.656037 117.524 1.37804ZM201.106 1.37804C200.468 1.54504 199.945 1.90404 199.945 2.17804C199.945 2.65304 201.991 9.03204 202.256 9.38104C202.521 9.73104 206.579 8.06604 206.579 7.60704C206.579 7.34304 206.103 5.73004 205.521 4.02404C204.468 0.931037 203.966 0.630037 201.106 1.37804ZM295.918 1.35504C295.67 1.60204 295.468 2.23404 295.468 2.75704C295.468 4.68704 290.269 14.727 287.929 17.317C284.418 21.204 286.291 26.798 289.952 23.359L291.488 21.916V33.309V44.701H294.473H297.458L297.469 31.269L297.48 17.836L298.861 19.992C300.734 22.916 300.879 22.848 304.841 17.172C306.752 14.436 308.559 12.197 308.856 12.197C309.154 12.197 309.398 19.511 309.398 28.449V44.701H312.051H314.705V39.726V34.751H322.002H329.299V32.098V29.444H322.002H314.705V26.459V23.474H322.002H329.299V20.821V18.167H322.002H314.705V15.182V12.197H322.333H329.962V9.87604V7.55404H320.272C311.315 7.55404 310.617 7.46604 311.032 6.39304C312.491 2.62104 312.284 1.77504 309.784 1.30604C307.014 0.786037 306.081 1.17804 306.081 2.86004C306.081 4.57504 301.796 12.773 299.466 15.514L297.493 17.836L297.472 15.182C297.46 13.705 298.372 10.24 299.529 7.36204C300.672 4.52104 301.495 2.09804 301.357 1.97804C300.755 1.45404 296.325 0.947037 295.918 1.35504ZM110.57 2.12304C108.589 3.38204 111.658 10.325 113.977 9.82904C116.707 9.24404 116.632 9.48204 115.411 5.28104C114.318 1.52204 112.937 0.620036 110.57 2.12304ZM194.221 2.07504C192.303 3.36404 195.51 9.89304 197.961 9.69004C200.87 9.44804 200.795 9.66804 199.387 5.51104C198.159 1.88704 196.321 0.664038 194.221 2.07504ZM56.8939 5.79504C54.1779 11.21 50.6659 15.409 46.5459 18.167L42.7319 20.72L44.4489 22.76C46.8289 25.589 47.0349 25.505 53.3449 19.163L58.9539 13.524H66.7169H74.4799L73.9079 15.515C73.1459 18.175 70.5259 23.367 69.5299 24.194C68.9659 24.662 67.3579 23.97 64.0719 21.844C58.5719 18.286 58.7359 18.31 56.4249 20.722L54.6139 22.612L59.6089 25.863C62.3569 27.65 64.6089 29.308 64.6129 29.546C64.6339 30.603 56.5889 35.159 51.7309 36.841C45.5939 38.966 45.5189 39.056 47.6399 41.707C49.2149 43.677 49.2419 43.683 52.4449 42.83C65.8589 39.258 76.0899 29.182 80.1359 15.558C82.2109 8.57104 82.5919 8.88104 71.9189 8.88104C66.8109 8.88104 62.6319 8.71704 62.6319 8.51604C62.6319 8.31504 63.1019 7.24304 63.6759 6.13304C64.9009 3.76304 65.0429 3.95704 61.4489 3.07504L58.6079 2.37704L56.8939 5.79504ZM337.922 10.871V19.494H353.842H369.763V10.871V2.24704H353.842H337.922V10.871ZM146.877 6.55904V10.207H135.6H124.323V13.192V16.177H133.61C138.718 16.177 142.897 16.374 142.897 16.615C142.897 18.586 133.916 27.766 126.817 33.052L124.336 34.899L125.49 36.889C126.126 37.984 127.008 39.023 127.451 39.199C129.213 39.898 137.947 32.635 143.02 26.251L146.877 21.397V32.054V42.711H149.862H152.847V29.444V16.177H157.823H162.798V13.192V10.207H157.491H152.184V6.55904V2.91004H149.531H146.877V6.55904ZM276.775 15.68C276.421 33.164 275.734 34.211 263.129 36.485C256.005 37.771 255.87 37.877 257.058 41.286C257.899 43.698 258.247 43.747 265.161 42.424C279.346 39.71 282.376 35.159 282.747 16.012L282.988 3.57404H280.004H277.02L276.775 15.68ZM86.5109 6.89304C84.9209 10.01 84.9019 10.207 86.1899 10.207C86.7429 10.207 89.7859 11.252 92.9529 12.529C96.1199 13.806 98.7689 14.851 98.8409 14.851C99.0909 14.851 101.161 9.37804 100.968 9.22804C100.862 9.14504 99.8789 8.76804 98.7839 8.39004C97.6899 8.01204 94.7789 6.93704 92.3149 5.99904L87.8359 4.29604L86.5109 6.89304ZM170.391 6.54104C169.026 9.80704 168.914 9.67304 174.915 11.929C177.919 13.059 180.839 14.187 181.405 14.437C182.148 14.765 182.746 14.235 183.561 12.527C184.973 9.56504 184.969 9.11604 183.527 8.70204C182.889 8.51904 179.888 7.44104 176.858 6.30704L171.35 4.24404L170.391 6.54104ZM253.677 17.172V30.108H256.662H259.647V17.172V4.23704H256.662H253.677V17.172ZM4.91994 7.88604V10.871H16.8969H28.8729L26.4759 15.433C21.8099 24.313 14.3609 31.768 5.99994 35.927L2.10394 37.865L4.13994 40.122L6.17594 42.38L10.5469 40.139C12.9499 38.907 17.0939 35.866 19.7549 33.381L24.5939 28.862L31.4849 35.777L38.3759 42.692L40.5539 40.582C43.4009 37.822 43.3569 37.669 38.5469 33.582C36.2879 31.662 32.9689 28.803 31.1719 27.228L27.9039 24.363L30.3859 20.278C32.8819 16.17 35.5479 10.113 36.3529 6.72504L36.7859 4.90004H20.8529H4.91994V7.88604ZM364.456 10.871V14.187H353.842H343.229V10.871V7.55404H353.842H364.456V10.871ZM114.523 13.024C111.113 26.063 102.343 33.3 86.9859 35.747C84.5019 36.143 84.4799 36.173 84.9109 38.6C85.5479 42.186 85.8589 42.297 91.9249 41.108C104.745 38.595 111.719 33.198 117.711 21.153C121.636 13.263 121.586 13.699 118.706 12.495C115.603 11.199 114.979 11.278 114.523 13.024ZM198.619 12.315C198.619 14.109 193.222 24.053 190.682 26.939C187.134 30.969 181.323 33.822 173.875 35.19C169.12 36.063 168.129 36.449 168.388 37.327C168.562 37.917 168.901 39.221 169.14 40.224C169.647 42.349 169.802 42.367 176.187 41.037C188.354 38.501 195.621 32.807 201.198 21.441C205.189 13.306 205.105 13.825 202.632 12.546C200.293 11.337 198.619 11.24 198.619 12.315ZM82.7849 17.26C81.6379 20.003 81.7679 20.194 85.8489 21.784C87.4909 22.424 90.2499 23.508 91.9809 24.194L95.1279 25.442L96.1429 23.013C97.5379 19.673 97.4989 19.63 90.7989 17.103C83.5169 14.356 84.0019 14.347 82.7849 17.26ZM166.367 17.26C165.158 20.154 165.096 20.092 171.753 22.685C178.906 25.471 178.676 25.474 179.853 22.594C181.17 19.372 180.722 18.895 174.201 16.576C167.954 14.354 167.567 14.387 166.367 17.26ZM333.279 33.425V44.701H335.932C338.143 44.701 338.585 44.48 338.585 43.375C338.585 42.184 339.028 42.048 342.897 42.048C346.288 42.048 347.209 42.261 347.209 43.043C347.209 43.738 347.909 44.038 349.531 44.038H351.852V33.093V22.148H342.566H333.279V33.425ZM354.506 33.425V44.701H357.159C359.37 44.701 359.813 44.48 359.813 43.375C359.813 42.174 360.255 42.048 364.456 42.048C368.657 42.048 369.1 42.174 369.1 43.375C369.1 44.449 369.542 44.701 371.421 44.701H373.743V33.425V22.148H364.124H354.506V33.425ZM347.209 32.43V37.405H342.897H338.585V32.43V27.454H342.897H347.209V32.43ZM369.1 32.43V37.405H364.456H359.813V32.43V27.454H364.456H369.1V32.43ZM0.939941 50.672C0.939941 51.112 64.0689 51.335 189 51.335C313.931 51.335 377.06 51.112 377.06 50.672C377.06 50.231 313.931 50.008 189 50.008C64.0689 50.008 0.939941 50.231 0.939941 50.672ZM55.4989 59.1C46.1339 60.903 47.5659 72.015 57.7519 76.585C63.0259 78.951 64.4439 80.931 63.3879 84.453C61.9089 89.39 55.3739 89.879 53.5329 85.192C52.3249 82.116 48.5279 82.114 48.1899 85.189C47.1449 94.713 63.8239 96.091 67.5479 86.789C70.3119 79.884 68.4009 76.272 59.9779 72.475C53.5049 69.558 52.2559 66.978 56.1639 64.595C58.9329 62.906 60.6879 62.931 62.9219 64.688C64.4949 65.925 64.9189 65.994 66.3289 65.239C71.4379 62.505 62.9129 57.673 55.4989 59.1ZM170.59 59.389C161.591 61.927 156.027 74.664 160.055 83.507C164.917 94.182 179.891 96.61 188.443 88.11C201.105 75.526 188.019 54.475 170.59 59.389ZM220.177 59.213C200.902 64.283 204.373 93.126 224.258 93.126C233.218 93.126 238.713 88.216 240.037 79.03L240.491 75.879H233.485H226.479V77.869V79.859H230.459C232.648 79.859 234.439 80 234.439 80.173C234.439 86.186 224.546 90.998 219.067 87.65C204.172 78.549 215.738 56.366 230.879 64.995C232.387 65.854 233.804 67.034 234.027 67.617C234.384 68.546 234.685 68.498 236.475 67.223L238.516 65.77L236.643 63.799C232.834 59.788 225.626 57.78 220.177 59.213ZM69.9289 61.617V63.939H73.9089H77.8889V78.201V92.463H80.2109H82.5319V78.201V63.939H86.5119H90.4929V61.617V59.295H80.2109H69.9289V61.617ZM91.8479 70.075C91.8979 88.797 94.2599 93.126 104.423 93.126C114.562 93.126 116.985 88.753 117.011 70.406L117.027 59.295H114.373H111.72V70.925C111.72 86.376 110.844 88.483 104.423 88.483C98.0009 88.483 97.1259 86.376 97.1259 70.925V59.295H94.4729H91.8189L91.8479 70.075ZM121.67 75.865V92.609L128.801 92.338C141.727 91.845 148.717 84.783 147.247 73.702C146.003 64.33 140.367 60.055 128.469 59.461L121.67 59.121V75.865ZM150.194 75.879V92.463H152.847H155.501V75.879V59.295H152.847H150.194V75.879ZM243.063 75.879V92.463H245.385H247.706V84.834V77.206H255.335H262.964V84.834V92.463H265.285H267.607V75.879V59.295H265.285H262.964V65.929V72.562H255.335H247.706V65.929V59.295H245.385H243.063V75.879ZM272.25 75.879V92.463H274.904H277.557V75.879V59.295H274.904H272.25V75.879ZM282.201 75.794V92.463H287.125C297.405 92.463 302.101 89.96 302.101 84.483C302.101 80.33 299.228 75.216 296.895 75.216C296.154 75.216 296.287 74.803 297.419 73.599C298.597 72.344 298.937 71.214 298.937 68.553C298.937 62.4 295.782 59.915 287.342 59.424L282.201 59.125V75.794ZM306.081 75.879V92.463H313.71H321.338V90.473V88.483H316.032H310.725V73.889V59.295H308.403H306.081V75.879ZM322.665 75.879V92.463H324.987H327.308V75.879V59.295H324.987H322.665V75.879ZM182.087 64.816C188.349 68.128 190.515 77.161 186.452 83.024C179.646 92.844 164.544 88.861 163.63 77.005C162.852 66.91 173.166 60.099 182.087 64.816ZM292.638 65.021C295.797 66.991 294.884 71.808 291.078 73.255C287.698 74.54 287.507 74.291 287.507 68.569V63.25L289.332 63.673C290.335 63.906 291.823 64.512 292.638 65.021ZM136.998 66.029C147.501 71.911 142.751 86.508 129.796 88.162L126.313 88.607V76.181V63.754L130.265 64.113C132.604 64.325 135.351 65.107 136.998 66.029ZM294.828 78.876C300.332 81.723 297.072 88.483 290.194 88.483H287.507V83.176V77.869H290.194C291.671 77.869 293.757 78.322 294.828 78.876Z" fill="white"/>
</svg>
