<svg width="16" height="14" viewBox="0 0 16 14" fill="none" xmlns="http://www.w3.org/2000/svg">
<path d="M16 2.039C15.4344 2.3 14.8318 2.473 14.2035 2.557C14.8499 2.151 15.3432 1.513 15.5751 0.744C14.9725 1.122 14.3071 1.389 13.5981 1.538C13.0259 0.897 12.2103 0.5 11.3207 0.5C9.59459 0.5 8.20496 1.974 8.20496 3.781C8.20496 4.041 8.22587 4.291 8.2772 4.529C5.6852 4.396 3.39166 3.089 1.8509 1.098C1.58191 1.589 1.42413 2.151 1.42413 2.756C1.42413 3.892 1.98017 4.899 2.809 5.482C2.30809 5.472 1.81669 5.319 1.40037 5.078C1.40037 5.088 1.40037 5.101 1.40037 5.114C1.40037 6.708 2.48108 8.032 3.89827 8.337C3.64449 8.41 3.36789 8.445 3.08085 8.445C2.88124 8.445 2.67974 8.433 2.49059 8.389C2.89455 9.688 4.04085 10.643 5.40386 10.674C4.3431 11.547 2.99625 12.073 1.53819 12.073C1.28251 12.073 1.03728 12.061 0.792053 12.028C2.17312 12.965 3.80988 13.5 5.57494 13.5C11.3121 13.5 14.4488 8.5 14.4488 4.166C14.4488 4.021 14.444 3.881 14.4374 3.742C15.0561 3.28 15.5761 2.703 16 2.039Z" fill="#577D6B"/>
</svg>
